<svg xmlns="http://www.w3.org/2000/svg" enable-background="new 0 0 512 512" viewBox="0 0 512 512" id="online-learning"><rect width="468.367" height="322.653" x="21.816" y="73.857" fill="#edf5ff"></rect><circle cx="365.286" cy="73.857" r="41.633" fill="#8372ce"></circle><circle cx="365.286" cy="73.857" r="11.633" fill="#d6e9ff"></circle><path fill="#ffcdb2" d="M256,146.714c28.737,0,52.041,23.304,52.041,52.041
						S284.737,250.796,256,250.796s-52.041-23.304-52.041-52.041S227.263,146.714,256,146.714z"></path><path fill="#9fe8ff" d="M354.878,349.673v46.837H157.122v-46.837
						c0-54.612,44.266-98.878,98.878-98.878c27.311,0,52.02,11.064,69.922,28.956C343.814,297.654,354.878,322.362,354.878,349.673z
						"></path><path fill="#8372ce" d="M511,396.51v5.204c0,43.111-34.951,78.061-78.061,78.061H79.061
						C35.951,479.776,1,444.825,1,401.714v-5.204h20.816h135.306h197.755h135.306H511z"></path></svg>