<svg xmlns="http://www.w3.org/2000/svg" enable-background="new 0 0 512 512" viewBox="0 0 512 512" id="e-book"><polygon fill="#edf5ff" points="490.184 105.082 490.184 427.735 270.97 438.143 21.816 427.735 21.816 105.082"></polygon><polygon fill="#77beff" points="427.735 105.082 427.735 330.939 84.265 330.939 84.265 105.082 84.265 42.633 427.735 42.633"></polygon><path fill="#d6e9ff" d="M386.102 42.633v236.265H257.041V46.276c0-1.228.052-2.436.146-3.643C259.039 19.339 278.544 1 302.316 1h83.786V42.633zM257.041 46.276v232.623H125.898V42.633 1h95.235C246.133 1 257.041 21.275 257.041 46.276z"></path><path fill="#8372ce" d="M511,427.735v5.204C511,476.049,476.049,511,432.939,511H79.061
							C35.951,511,1,476.049,1,432.939v-5.204h20.816h468.367H511z"></path><path fill="#d6e9ff" d="M438.143,386.102H84.265c-5.748,0-10.408-4.66-10.408-10.408
							c0-5.748,4.66-10.408,10.408-10.408h353.878c5.748,0,10.408,4.66,10.408,10.408
							C448.551,381.442,443.891,386.102,438.143,386.102z"></path><path fill="#9fe8ff" d="M211.245 73.857h-43.714c-5.748 0-10.408-4.66-10.408-10.408s4.66-10.408 10.408-10.408h43.714c5.748 0 10.408 4.66 10.408 10.408S216.993 73.857 211.245 73.857zM211.245 115.49h-43.714c-5.748 0-10.408-4.66-10.408-10.408 0-5.748 4.66-10.408 10.408-10.408h43.714c5.748 0 10.408 4.66 10.408 10.408C221.653 110.83 216.993 115.49 211.245 115.49zM211.245 167.531h-43.714c-5.748 0-10.408-4.66-10.408-10.408 0-5.748 4.66-10.408 10.408-10.408h43.714c5.748 0 10.408 4.66 10.408 10.408C221.653 162.871 216.993 167.531 211.245 167.531zM211.245 209.163h-43.714c-5.748 0-10.408-4.66-10.408-10.408s4.66-10.408 10.408-10.408h43.714c5.748 0 10.408 4.66 10.408 10.408S216.993 209.163 211.245 209.163zM344.469 73.857h-41.633c-5.748 0-10.408-4.66-10.408-10.408s4.66-10.408 10.408-10.408h41.633c5.748 0 10.408 4.66 10.408 10.408S350.217 73.857 344.469 73.857zM344.469 115.49h-41.633c-5.748 0-10.408-4.66-10.408-10.408 0-5.748 4.66-10.408 10.408-10.408h41.633c5.748 0 10.408 4.66 10.408 10.408C354.878 110.83 350.217 115.49 344.469 115.49zM344.469 167.531h-41.633c-5.748 0-10.408-4.66-10.408-10.408 0-5.748 4.66-10.408 10.408-10.408h41.633c5.748 0 10.408 4.66 10.408 10.408C354.878 162.871 350.217 167.531 344.469 167.531zM344.469 209.163h-41.633c-5.748 0-10.408-4.66-10.408-10.408s4.66-10.408 10.408-10.408h41.633c5.748 0 10.408 4.66 10.408 10.408S350.217 209.163 344.469 209.163z"></path></svg>