<svg xmlns="http://www.w3.org/2000/svg" enable-background="new 0 0 512 512" viewBox="0 0 512 512" id="medal"><path fill="#ffd876" d="M118.414,73.982l95.141,150.481c-11.907-1.447-26.707-9.971-35.637-4.809
						c-11.053,6.401-8.618,30.569-17.59,39.551c-4.08,4.07-11.293,5.797-18.537,7.494L1,44.059L72.265,1L118.414,73.982z"></path><polygon fill="#ffcb4b" points="439.735 1 393.586 73.982 393.388 73.857 118.612 73.857 118.414 73.982 72.265 1"></polygon><path fill="#ff626d" d="M386.727,319.844c3.216,12.032,25.396,21.992,25.396,35.034
						c0,13.041-22.18,23.002-25.396,35.034c-3.331,12.448,10.804,32.14,4.496,43.048c-6.401,11.053-30.569,8.618-39.551,17.59
						c-8.972,8.982-6.536,33.15-17.59,39.551c-10.908,6.307-30.6-7.827-43.048-4.496C279.002,488.82,269.041,511,256,511
						c-13.041,0-23.002-22.18-35.034-25.396c-12.448-3.331-32.14,10.804-43.048,4.496c-11.053-6.401-8.618-30.569-17.59-39.551
						c-8.982-8.972-33.15-6.536-39.551-17.59c-6.307-10.908,7.827-30.6,4.496-43.048c-3.216-12.032-25.396-21.992-25.396-35.034
						c0-13.042,22.18-23.002,25.396-35.034c3.331-12.448-10.804-32.14-4.496-43.048c3.497-6.037,12.282-8.046,21.014-10.096
						c7.244-1.696,14.457-3.424,18.537-7.494c8.972-8.982,6.536-33.15,17.59-39.551c8.93-5.162,23.731,3.362,35.637,4.809
						c2.644,0.323,5.152,0.291,7.411-0.312c12.032-3.216,21.993-25.396,35.034-25.396c13.041,0,23.002,22.18,35.034,25.396
						c2.258,0.604,4.767,0.635,7.411,0.312c11.907-1.447,26.707-9.971,35.638-4.809c11.053,6.401,8.618,30.569,17.59,39.551
						c4.08,4.07,11.293,5.797,18.537,7.494c8.732,2.05,17.517,4.059,21.014,10.096C397.53,287.703,383.396,307.396,386.727,319.844z
						"></path><path fill="#ffd876" d="M256 271.612c45.983 0 83.265 37.282 83.265 83.265 0 45.983-37.282 83.265-83.265 83.265s-83.265-37.282-83.265-83.265C172.735 308.894 210.017 271.612 256 271.612zM511 44.059L370.209 266.7c-7.244-1.696-14.457-3.424-18.537-7.494-8.972-8.982-6.536-33.15-17.59-39.551-8.93-5.162-23.731 3.362-35.638 4.809l95.141-150.481L439.735 1 511 44.059z"></path><polygon fill="#8372ce" points="291.69 343.283 273.85 360.675 278.055 385.238 256 373.643 233.945 385.238 238.15 360.675 220.31 343.283 244.967 339.702 256 317.346 267.033 339.702"></polygon></svg>