<svg xmlns="http://www.w3.org/2000/svg" enable-background="new 0 0 512 512" viewBox="0 0 512 512" id="student"><path fill="#9fe8ff" d="M271.612,344h-93.673L55.287,381.059C35.48,387.002,22,405.472,22,426.153v43.215
				l280.929,10.408L292.474,350.48L271.612,344z"></path><path fill="#edf5ff" d="M292,324v26.714v118.653l125.316,20.816L501,469.367V324H292z"></path><path fill="#ffaa9a" d="M257.915,291.606l13.697,52.863l-4.684,4.684
					c-23.283,23.283-61.023,23.283-84.306,0l-4.684-4.684l13.697-52.863c10.304,3.893,21.472,6.026,33.14,6.026
					C236.443,297.633,247.611,295.499,257.915,291.606z"></path><path fill="#ffcdb2" d="M257.915,291.606c-10.304,3.893-21.472,6.026-33.14,6.026
					c-11.667,0-22.835-2.134-33.14-6.026c-30.673-11.615-53.664-38.874-59.233-72.035h-1.301c-17.246,0-31.224-13.978-31.224-31.225
					c0-17.246,13.978-31.224,31.224-31.224v-20.816h187.347v20.816c17.246,0,31.224,13.978,31.224,31.224
					c0,17.246-13.978,31.225-31.224,31.225h-1.301C311.58,252.732,288.588,279.991,257.915,291.606z"></path><path fill="#d6e9ff" d="M396.51,375.694c11.501,0,20.816,9.315,20.816,20.816
					s-9.315,20.816-20.816,20.816s-20.816-9.315-20.816-20.816S385.009,375.694,396.51,375.694z"></path><polygon fill="#6451bd" points="318.449 54.342 318.449 136.306 131.102 136.306 131.102 54.342 224.775 89.469"></polygon><polygon fill="#8372ce" points="318.449 54.342 224.775 89.469 131.102 54.342 99.878 42.633 224.775 1 349.673 42.633"></polygon><polygon fill="#ff626d" points="511 469.367 511 511 1 511 1 469.367 21.816 469.367 292.429 469.367 427.735 469.367 500.592 469.367"></polygon></svg>