<svg xmlns="http://www.w3.org/2000/svg" enable-background="new 0 0 512 512" viewBox="0 0 512 512" id="pdf"><polygon fill="#d6e9ff" points="302.633 448.551 302.633 511 11.204 511 11.204 84.265 73.653 84.265"></polygon><polygon fill="#edf5ff" points="303 74 303 1 74 1 74 84.265 74 449 302.633 449 376 449 376 74"></polygon><polygon fill="#8372ce" points="375.49 199 178 199 178 386 375.49 386 501 386 501 199"></polygon><polygon fill="#d6e9ff" points="375.49 73.857 302.633 73.857 302.633 1"></polygon><path fill="#9fe8ff" d="M333.857 167.531H115.286c-5.748 0-10.408-4.66-10.408-10.408 0-5.748 4.66-10.408 10.408-10.408h218.571c5.748 0 10.408 4.66 10.408 10.408C344.265 162.871 339.605 167.531 333.857 167.531zM333.857 125.898H115.286c-5.748 0-10.408-4.66-10.408-10.408s4.66-10.408 10.408-10.408h218.571c5.748 0 10.408 4.66 10.408 10.408S339.605 125.898 333.857 125.898zM219.367 84.265H115.286c-5.748 0-10.408-4.66-10.408-10.408 0-5.748 4.66-10.408 10.408-10.408h104.082c5.748 0 10.408 4.66 10.408 10.408C229.775 79.605 225.115 84.265 219.367 84.265z"></path><path fill="#d6e9ff" d="M256,196h-25c-5.523,0-10,4.477-10,10v50v50c0,5.522,4.477,10,10,10s10-4.478,10-10
		v-40h15c9.353,0,18.144-3.641,24.75-10.248c6.609-6.608,10.25-15.4,10.25-24.752C291,211.701,275.299,196,256,196z
		 M266.607,241.609C263.777,244.44,260.01,246,256,246h-15v-30h15c8.272,0,15,6.729,15,15
		C271,235.01,269.44,238.777,266.607,241.609z"></path><path fill="#d6e9ff" d="M243,196h-17c-5.523,0-10,4.477-10,10v100c0,5.522,4.477,10,10,10h17
		c29.225,0,53-23.775,53-53v-14C296,219.776,272.225,196,243,196z M276,263c0,18.196-14.804,33-33,33h-7v-80h7
		c18.196,0,33,14.804,33,33V263z"></path><path fill="#d6e9ff" d="M276,196h-40c-5.523,0-10,4.477-10,10v100c0,5.522,4.477,10,10,10s10-4.478,10-10
		v-40h20c5.522,0,10-4.478,10-10c0-5.523-4.478-10-10-10h-20v-30h30c5.522,0,10-4.477,10-10S281.522,196,276,196z"></path></svg>