<svg xmlns="http://www.w3.org/2000/svg" enable-background="new 0 0 512 512" viewBox="0 0 512 512" id="teacher"><path fill="#8372ce" d="M369.948 100.71c-.291-.76-.583-1.509-.895-2.269C345.635 41.488 290.035 1.031 224.859 1c-42.07-.021-80.247 16.591-108.338 43.621-24.511 23.595-37.303 55.257-37.813 87.397-.271 16.653 4.85 32.789 14.395 46.445L99.878 188h249.796l10.169-14.107C375.017 152.567 379.16 125.211 369.948 100.71zM340.254 211.06L317.148 220l-59.233 71.821 13.483 52.756L291 361l82.956-37C379.41 285 365.463 240.578 340.254 211.06zM132.403 220l-23.117-9.113c-36.595 42.736-50.49 117.682-15.071 158.805l83.723-25.168 13.697-52.676L132.403 220z"></path><path fill="#ffd876" d="M292.429,350.48L271.612,344h-93.674l-83.723,25.35l-38.928,11.827
						C35.48,387.119,22,405.472,22,426.153v43.215L151.092,481l141.382-11.633l18.548-58.484L292.429,350.48z"></path><path fill="#ffaa9a" d="M257.915,292h-66.279l-13.697,52.666l4.684,4.585
						c23.283,23.283,61.023,23.234,84.306-0.049l4.684-4.512L257.915,292z"></path><path fill="#ffcdb2" d="M257.915,291.606c-10.304,3.893-21.472,6.026-33.14,6.026
							c-11.667,0-22.835-2.134-33.14-6.026c-30.673-11.616-53.664-38.875-59.233-72.035h-1.301c-8.493,0-16.185-3.393-21.816-8.899
							c-5.808-5.662-9.409-13.572-9.409-22.326c0-17.246,13.978-31.225,31.224-31.225v-12.594c0-18.204,13.468-33.67,31.516-36.012
							c36.231-4.684,62.158-20.005,62.158-60.68c0,40.675,25.927,55.996,62.158,60.68c18.048,2.342,31.516,17.808,31.516,36.012
							v12.594c17.246,0,31.224,13.978,31.224,31.225c0,8.753-3.601,16.674-9.419,22.326c-5.62,5.506-13.322,8.899-21.805,8.899
							h-1.301C311.58,252.732,288.588,279.991,257.915,291.606z"></path><polygon fill="#d6e9ff" points="373.956 324 292 324 292 350.714 292 469.367 390.99 491 501 469.367 501 324"></polygon><path fill="#b5dbff" d="M396.51,375.694c11.501,0,20.816,9.315,20.816,20.816
							c0,11.501-9.315,20.816-20.816,20.816s-20.816-9.315-20.816-20.816C375.694,385.009,385.009,375.694,396.51,375.694z"></path><polygon fill="#ff626d" points="511 469.367 511 511 1 511 1 469.367 21.816 469.367 500.592 469.367"></polygon></svg>