<svg xmlns="http://www.w3.org/2000/svg" enable-background="new 0 0 512 512" viewBox="0 0 512 512" id="tablet"><path fill="#edf5ff" d="M337.286,1h-75.98l-80.204,20L126,1H50.02C25.874,1,6,20.567,6,44.714V438
						l155,13l220-13V44.714C381,20.567,361.433,1,337.286,1z"></path><polygon fill="#ffcdb2" points="505.898 417.327 505.898 448.551 474.673 490.184 443.449 448.551 443.449 417.327"></polygon><path fill="#8372ce" d="M505.898,53.041v45.796h-62.449V53.041c0-17.246,13.978-31.224,31.225-31.224
							c8.618,0,16.424,3.497,22.076,9.149C502.401,36.617,505.898,44.423,505.898,53.041z"></path><rect width="62.449" height="318.49" x="443.449" y="98.837" fill="#ff626d"></rect><polygon fill="#d6e9ff" points="261.306 1 245.694 42.633 141.612 42.633 126 1"></polygon><rect width="291.429" height="72.857" x="47.939" y="105.082" fill="#9fe8ff"></rect><path fill="#8372ce" d="M381,438.143v29.143C381,491.433,361.433,511,337.286,511H50.02
							c-24.147,0-43.714-19.567-43.714-43.714v-29.143H381z"></path><path fill="#d6e9ff" d="M276.918 229.98H47.939c-5.748 0-10.408-4.66-10.408-10.408 0-5.748 4.66-10.408 10.408-10.408h228.98c5.748 0 10.408 4.66 10.408 10.408C287.327 225.32 282.666 229.98 276.918 229.98zM276.918 271.612H47.939c-5.748 0-10.408-4.66-10.408-10.408 0-5.748 4.66-10.408 10.408-10.408h228.98c5.748 0 10.408 4.66 10.408 10.408C287.327 266.952 282.666 271.612 276.918 271.612z"></path><path fill="#8372ce" d="M235.286,303H152.02c-5.748,0-10.408,4.752-10.408,10.5s4.66,10.5,10.408,10.5
						H183v72.51c0,5.748,4.752,10.408,10.5,10.408s10.5-4.66,10.5-10.408V324h31.286c5.748,0,10.408-4.752,10.408-10.5
						S241.034,303,235.286,303z"></path></svg>